<svg width="16" height="16" viewBox="0 0 16 16" fill="none" xmlns="http://www.w3.org/2000/svg">
<rect width="16" height="16" rx="8" fill="#FFCE01"/>
<path d="M5.70216 7.74651C5.82009 7.74138 5.90903 7.81685 5.98803 7.92522C6.33113 8.39491 6.67467 8.864 7.01866 9.33249C7.11513 9.4641 7.11535 9.4641 7.2147 9.32857C8.14488 8.06075 9.07484 6.79294 10.0046 5.52512C10.1152 5.37419 10.2409 5.29057 10.3998 5.35276C10.4579 5.37427 10.5112 5.41526 10.5548 5.472C10.5984 5.52874 10.6309 5.59944 10.6494 5.67767C10.6679 5.75591 10.6717 5.8392 10.6606 5.91999C10.6495 6.00078 10.6238 6.07652 10.5858 6.14031C10.5683 6.16939 10.5494 6.197 10.5294 6.22302L7.40343 10.4793C7.26028 10.6743 7.09101 10.7186 6.93879 10.6C6.90536 10.5735 6.87464 10.5411 6.8474 10.5037C6.38054 9.87061 5.91494 9.2374 5.45058 8.6041C5.26848 8.35506 5.30411 7.97442 5.5205 7.80507C5.57574 7.76239 5.63875 7.74208 5.70216 7.74651Z" fill="white"/>
</svg>
