<svg width="12" height="9" viewBox="0 0 12 9" fill="none" xmlns="http://www.w3.org/2000/svg">
<path d="M6.81924 5.6933C6.52852 5.88711 6.19084 5.98956 5.84267 5.98956C5.49453 5.98956 5.15684 5.88711 4.86613 5.6933L0.0778034 2.50099C0.0512375 2.48328 0.0253563 2.46481 0 2.44582V7.67677C0 8.27651 0.486699 8.75249 1.07571 8.75249H10.6096C11.2094 8.75249 11.6853 8.26579 11.6853 7.67677V2.4458C11.6599 2.46484 11.634 2.48334 11.6074 2.50108L6.81924 5.6933Z" fill="#181717"/>
<path d="M0.4576 1.93064L5.24592 5.12297C5.42718 5.24382 5.63491 5.30423 5.84265 5.30423C6.05041 5.30423 6.25816 5.2438 6.43942 5.12297L11.2277 1.93064C11.5143 1.73972 11.6853 1.4202 11.6853 1.07535C11.6853 0.482386 11.2029 0 10.61 0H1.07535C0.482408 2.28229e-05 0 0.482408 0 1.07592C0 1.4202 0.171081 1.73972 0.4576 1.93064Z" fill="#181717"/>
</svg>
