<svg width="416" height="170" viewBox="0 0 416 170" fill="none" xmlns="http://www.w3.org/2000/svg">
<mask id="mask0_3265_884" style="mask-type:alpha" maskUnits="userSpaceOnUse" x="8" y="7" width="400" height="154">
<rect x="8" y="7" width="400" height="154" rx="20" fill="#FFCE01"/>
</mask>
<g mask="url(#mask0_3265_884)">
<g filter="url(#filter0_d_3265_884)">
<rect x="8" y="7" width="400" height="154" rx="20" fill="#FFCE01"/>
</g>
<path d="M134.858 35.0684L150.648 39.5022L155.082 55.292L159.137 71.1833L147.679 82.9179L135.945 94.3755L120.053 90.3203L104.263 85.8865L99.8298 70.0967L95.7746 54.2054L107.232 42.4708L118.967 31.0132L134.858 35.0684Z" stroke="white" stroke-opacity="0.47"/>
<path d="M91.9728 -7.05096L107.763 -2.61721L112.196 13.1726L116.252 29.0639L104.794 40.7986L93.0594 52.2561L77.168 48.2009L61.3782 43.7672L56.9445 27.9773L52.8893 12.086L64.3468 0.351387L76.0815 -11.1061L91.9728 -7.05096Z" stroke="white" stroke-opacity="0.47"/>
<path d="M76.2737 50.7676L92.0635 55.2014L96.4973 70.9912L100.552 86.8825L89.0949 98.6172L77.3603 110.075L61.4689 106.019L45.6791 101.586L41.2454 85.7959L37.1902 69.9046L48.6478 58.17L60.3824 46.7125L76.2737 50.7676Z" stroke="white" stroke-opacity="0.47"/>
<path d="M32.5375 7.8747L48.3273 12.3084L52.7611 28.0982L56.8162 43.9896L45.3587 55.7242L33.6241 67.1817L17.7327 63.1266L1.94294 58.6928L-2.4908 42.903L-6.54598 27.0117L4.91154 15.277L16.6462 3.81952L32.5375 7.8747Z" stroke="white" stroke-opacity="0.47"/>
<path d="M16.5977 67.206L32.3875 71.6397L36.8212 87.4295L40.8764 103.321L29.4189 115.056L17.6842 126.513L1.79292 122.458L-13.9969 118.024L-18.4306 102.234L-22.4858 86.343L-11.0283 74.6083L0.706382 63.1508L16.5977 67.206Z" stroke="white" stroke-opacity="0.47"/>
<path d="M119.159 92.5042L134.949 96.938L139.382 112.728L143.438 128.619L131.98 140.354L120.245 151.811L104.354 147.756L88.5643 143.322L84.1305 127.533L80.0754 111.641L91.5329 99.9066L103.268 88.449L119.159 92.5042Z" stroke="white" stroke-opacity="0.47"/>
<path d="M60.8748 109.444L76.6646 113.878L81.0983 129.668L85.1535 145.559L73.696 157.294L61.9613 168.751L46.07 164.696L30.2802 160.262L25.8465 144.472L21.7913 128.581L33.2488 116.847L44.9835 105.389L60.8748 109.444Z" stroke="white" stroke-opacity="0.47"/>
<path d="M162.641 134.886L178.431 139.319L182.864 155.109L186.92 171L175.462 182.735L163.727 194.193L147.836 190.137L132.046 185.704L127.612 169.914L123.557 154.023L135.015 142.288L146.749 130.83L162.641 134.886Z" stroke="white" stroke-opacity="0.47"/>
<path d="M150.59 -23.1193L166.379 -18.6855L170.813 -2.89572L174.868 12.9956L163.411 24.7303L151.676 36.1878L135.785 32.1326L119.995 27.6989L115.561 11.909L111.506 -3.98226L122.964 -15.7169L134.698 -27.1744L150.59 -23.1193Z" stroke="white" stroke-opacity="0.47"/>
<path d="M213.822 45.6856L221.885 74.4015L229.26 103.302L208.423 124.643L187.082 145.48L158.182 138.105L129.466 130.042L121.403 101.326L114.028 72.4254L134.865 51.0844L156.206 30.2474L185.106 37.6223L213.822 45.6856Z" fill="#FAD985"/>
</g>
<defs>
<filter id="filter0_d_3265_884" x="0" y="0" width="416" height="170" filterUnits="userSpaceOnUse" color-interpolation-filters="sRGB">
<feFlood flood-opacity="0" result="BackgroundImageFix"/>
<feColorMatrix in="SourceAlpha" type="matrix" values="0 0 0 0 0 0 0 0 0 0 0 0 0 0 0 0 0 0 127 0" result="hardAlpha"/>
<feOffset dy="1"/>
<feGaussianBlur stdDeviation="4"/>
<feComposite in2="hardAlpha" operator="out"/>
<feColorMatrix type="matrix" values="0 0 0 0 0.812062 0 0 0 0 0.78715 0 0 0 0 0.865 0 0 0 0.44 0"/>
<feBlend mode="normal" in2="BackgroundImageFix" result="effect1_dropShadow_3265_884"/>
<feBlend mode="normal" in="SourceGraphic" in2="effect1_dropShadow_3265_884" result="shape"/>
</filter>
</defs>
</svg>
