<svg width="815" height="367" viewBox="0 0 815 367" fill="none" xmlns="http://www.w3.org/2000/svg">
<path d="M600.719 263.189L662.614 231.555L721.843 267.936L721.859 267.945L780.187 305.722L778.296 375.189L778.294 375.225L774.743 444.627L713.637 477.722L713.605 477.739L651.726 509.364L592.511 472.993L592.496 472.983L534.153 435.197L536.045 365.712L539.597 296.292L600.719 263.189Z" stroke="white" stroke-opacity="0.43" stroke-width="3"/>
<path d="M852.987 272.023L914.883 240.39L974.112 276.771L974.127 276.78L1032.46 314.557L1030.56 384.024L1030.56 384.06L1027.01 453.462L965.905 486.557L965.874 486.574L903.994 518.199L844.78 481.828L844.764 481.818L786.421 444.032L788.313 374.547L791.865 305.127L852.987 272.023Z" stroke="white" stroke-opacity="0.43" stroke-width="3"/>
<path d="M346.136 254.042L408.031 222.408L467.26 258.789L467.276 258.798L525.604 296.575L523.713 366.042L523.711 366.078L520.16 435.48L459.054 468.575L459.022 468.592L397.143 500.217L337.928 463.846L337.913 463.836L279.57 426.05L281.462 356.565L285.014 287.145L346.136 254.042Z" stroke="white" stroke-opacity="0.43" stroke-width="3"/>
<path d="M90.326 240.521L152.221 208.887L211.451 245.268L211.466 245.278L269.794 283.054L267.903 352.521L267.902 352.557L264.35 421.959L203.244 455.055L203.213 455.071L141.333 486.697L82.1184 450.325L82.1031 450.315L23.76 412.529L25.6522 343.045L29.2043 273.625L90.326 240.521Z" stroke="white" stroke-opacity="0.43" stroke-width="3"/>
<path d="M482.253 38.8644L544.148 7.2306L603.378 43.6117L603.393 43.6212L661.721 81.3979L659.83 150.865L659.828 150.901L656.277 220.303L595.171 253.398L595.139 253.415L533.26 285.04L474.045 248.669L474.03 248.659L415.687 210.873L417.579 141.388L421.131 71.9682L482.253 38.8644Z" stroke="white" stroke-opacity="0.43" stroke-width="3"/>
<path d="M734.95 48.0983L796.845 16.4645L856.075 52.8455L856.09 52.855L914.418 90.6318L912.527 160.099L912.526 160.135L908.974 229.537L847.868 262.632L847.837 262.649L785.957 294.274L726.742 257.903L726.727 257.893L668.384 220.107L670.276 150.622L673.828 81.202L734.95 48.0983Z" stroke="white" stroke-opacity="0.43" stroke-width="3"/>
</svg>
