<svg width="286" height="246" viewBox="0 0 286 246" fill="none" xmlns="http://www.w3.org/2000/svg">
<path d="M168.098 75.4985L183.419 79.8003L187.721 95.1206L191.655 110.539L180.538 121.925L169.153 133.042L153.734 129.107L138.414 124.805L134.112 109.485L130.177 94.0663L141.294 82.6807L152.68 71.5639L168.098 75.4985Z" stroke="white" stroke-opacity="0.47"/>
<path d="M126.467 34.6102L141.787 38.912L146.089 54.2323L150.023 69.6509L138.907 81.0366L127.521 92.1534L112.102 88.2188L96.7821 83.9169L92.4802 68.5967L88.5456 53.178L99.6624 41.7924L111.048 30.6756L126.467 34.6102Z" stroke="white" stroke-opacity="0.47"/>
<path d="M111.226 90.7388L126.547 95.0407L130.849 110.361L134.783 125.78L123.666 137.165L112.281 148.282L96.8619 144.347L81.5417 140.046L77.2399 124.725L73.3053 109.307L84.4221 97.921L95.8077 86.8042L111.226 90.7388Z" stroke="white" stroke-opacity="0.47"/>
<path d="M68.7686 49.0995L84.0889 53.4014L88.3908 68.7217L92.3253 84.1403L81.2086 95.526L69.8229 106.643L54.4042 102.708L39.084 98.4063L34.7821 83.0861L30.8475 67.6674L41.9643 56.2817L53.35 45.165L68.7686 49.0995Z" stroke="white" stroke-opacity="0.47"/>
<path d="M53.2948 106.697L68.615 110.999L72.9169 126.319L76.8515 141.737L65.7347 153.123L54.349 164.24L38.9303 160.305L23.6101 156.003L19.3082 140.683L15.3736 125.265L26.4904 113.879L37.8761 102.762L53.2948 106.697Z" stroke="white" stroke-opacity="0.47"/>
<path d="M152.858 131.255L168.178 135.557L172.48 150.878L176.415 166.296L165.298 177.682L153.912 188.799L138.494 184.864L123.173 180.562L118.872 165.242L114.937 149.823L126.054 138.438L137.439 127.321L152.858 131.255Z" stroke="white" stroke-opacity="0.47"/>
<path d="M96.2777 147.7L111.598 152.002L115.9 167.322L119.834 182.741L108.718 194.127L97.3319 205.243L81.9132 201.309L66.593 197.007L62.2911 181.687L58.3565 166.268L69.4733 154.882L80.859 143.766L96.2777 147.7Z" stroke="white" stroke-opacity="0.47"/>
<path d="M195.069 172.398L210.389 176.7L214.691 192.02L218.626 207.439L207.509 218.824L196.123 229.941L180.705 226.007L165.385 221.705L161.083 206.385L157.148 190.966L168.265 179.58L179.65 168.463L195.069 172.398Z" stroke="white" stroke-opacity="0.47"/>
<path d="M183.37 19.0115L198.69 23.3134L202.992 38.6336L206.927 54.0523L195.81 65.438L184.424 76.5548L169.006 72.6202L153.686 68.3183L149.384 52.9981L145.449 37.5794L156.566 26.1937L167.952 15.0769L183.37 19.0115Z" stroke="white" stroke-opacity="0.47"/>
<path d="M244.758 85.7912L252.586 113.668L259.745 141.723L239.517 162.44L218.8 182.668L190.744 175.509L162.868 167.681L155.04 139.805L147.881 111.749L168.109 91.0322L188.826 70.8042L216.882 77.9635L244.758 85.7912Z" fill="#FAD985"/>
</svg>
