<svg width="19" height="22" viewBox="0 0 19 22" fill="none" xmlns="http://www.w3.org/2000/svg">
<path d="M11.6111 0H7.38889C3.325 0 0 3.46356 0 7.69679V10.9954C0 13.9642 1.6625 16.6855 4.22222 17.95V21.6335C4.22222 21.9633 4.61806 22.1283 4.82917 21.8809L7.89028 18.6922H11.6111C15.675 18.6922 19 15.2287 19 10.9954V7.69679C19 3.46356 15.675 0 11.6111 0ZM14.3819 14.4315L13.3 15.531C12.1653 16.6855 9.23611 15.3661 6.65 12.6172C4.06389 9.86839 2.92917 6.78967 4.01111 5.63515L5.06667 4.53561C5.4625 4.12328 6.12222 4.15077 6.57083 4.5631L8.10139 6.21241C8.65556 6.78967 8.41806 7.77926 7.70556 7.99917C7.20417 8.1641 6.86111 8.74136 7.01944 9.26364C7.28333 10.4731 8.76111 12.0125 9.86944 12.3149C10.3708 12.4248 10.925 12.1499 11.1097 11.6277C11.3472 10.8855 12.2972 10.6656 12.825 11.2428L14.3556 12.8921C14.7778 13.277 14.7778 13.9642 14.3819 14.4315ZM10.45 5.22282C10.3444 5.22282 10.2389 5.22282 10.1333 5.25031C9.94861 5.2778 9.76389 5.11287 9.7375 4.92045C9.71111 4.72803 9.86944 4.53561 10.0542 4.50812C10.1861 4.48063 10.3181 4.48063 10.45 4.48063C12.3764 4.48063 13.9597 6.12995 13.9597 8.13661C13.9597 8.27405 13.9597 8.4115 13.9333 8.54894C13.9069 8.74136 13.7222 8.90629 13.5375 8.8788C13.3528 8.85131 13.1944 8.65889 13.2208 8.46647C13.2208 8.35652 13.2472 8.24656 13.2472 8.13661C13.2736 6.54227 12.0069 5.22282 10.45 5.22282ZM12.5611 8.1641C12.5611 8.35652 12.4028 8.52145 12.2181 8.52145C12.0333 8.52145 11.875 8.35652 11.875 8.1641C11.875 7.36693 11.2417 6.70721 10.4764 6.70721C10.2917 6.70721 10.1333 6.54227 10.1333 6.34985C10.1333 6.15743 10.2917 5.9925 10.4764 5.9925C11.6111 5.96501 12.5611 6.9546 12.5611 8.1641ZM15.2528 9.34611C15.2 9.53853 15.0153 9.67597 14.8042 9.62099C14.6194 9.56601 14.5139 9.3736 14.5667 9.18118C14.6458 8.85131 14.6722 8.52145 14.6722 8.1641C14.6722 5.74511 12.7722 3.76593 10.45 3.76593C10.3444 3.76593 10.2389 3.76593 10.1333 3.76593C9.94861 3.76593 9.76389 3.62849 9.76389 3.43607C9.76389 3.24365 9.89583 3.05123 10.0806 3.05123C10.2125 3.05123 10.3444 3.02374 10.45 3.02374C13.1681 3.02374 15.3847 5.33278 15.3847 8.1641C15.3847 8.54894 15.3319 8.96127 15.2528 9.34611Z" fill="#825231"/>
</svg>
